<?xml version="1.0" encoding="utf-8"?>
<!-- Generator: Adobe Illustrator 16.0.0, SVG Export Plug-In . SVG Version: 6.00 Build 0)  -->
<!DOCTYPE svg PUBLIC "-//W3C//DTD SVG 1.1//EN" "http://www.w3.org/Graphics/SVG/1.1/DTD/svg11.dtd">
<svg version="1.1"
	 id="Layer_1" xmlns:sodipodi="http://sodipodi.sourceforge.net/DTD/sodipodi-0.dtd" xmlns:svg="http://www.w3.org/2000/svg" xmlns:dc="http://purl.org/dc/elements/1.1/" xmlns:cc="http://creativecommons.org/ns#" xmlns:rdf="http://www.w3.org/1999/02/22-rdf-syntax-ns#" xmlns:inkscape="http://www.inkscape.org/namespaces/inkscape"
	 xmlns="http://www.w3.org/2000/svg" xmlns:xlink="http://www.w3.org/1999/xlink" x="0px" y="0px" width="1000px" height="1000px"
	 viewBox="0 0 1000 1000" enable-background="new 0 0 1000 1000" xml:space="preserve">
<g transform="translate(0,-1006.3622)">
	<linearGradient id="SVGID_1_" gradientUnits="userSpaceOnUse" x1="499.9995" y1="1010.8622" x2="499.9995" y2="2001.8627">
		<stop  offset="0" style="stop-color:#7F6CFF"/>
		<stop  offset="1" style="stop-color:#3E7EDF"/>
	</linearGradient>
	<path fill="url(#SVGID_1_)" d="M500,1010.862c273.785,0,495.5,221.719,495.5,495.5c0,273.787-221.715,495.5-495.5,495.5
		c-273.785,0-495.5-221.713-495.5-495.5C4.5,1232.581,226.215,1010.862,500,1010.862z M295.336,1398.645
		c-5.948,0-10.771,4.823-10.771,10.771v32.315h-53.859c-5.948,0-10.771,4.823-10.771,10.771v32.315H187.62
		c-5.949,0-10.771,4.823-10.772,10.771v43.088c0,5.947,4.823,10.771,10.772,10.771h32.315v32.314
		c0.001,5.949,4.823,10.771,10.771,10.771h53.859v32.316c0.001,5.947,4.824,10.771,10.771,10.771h64.63
		c5.949,0,10.771-4.824,10.772-10.771v-75.402H500h129.261v75.402c0.001,5.947,4.823,10.771,10.772,10.771h64.629
		c5.95,0,10.771-4.824,10.772-10.771v-32.316h53.859c5.948,0,10.771-4.822,10.771-10.771v-32.314h32.314
		c5.95,0,10.771-4.824,10.771-10.771v-21.543v-21.545c-0.001-5.948-4.821-10.771-10.771-10.771h-32.314v-32.315
		c0-5.948-4.823-10.771-10.771-10.771h-53.859v-32.315c-0.001-5.948-4.822-10.771-10.772-10.771h-64.629
		c-5.949,0-10.771,4.823-10.772,10.771v75.402H500H370.739v-75.402c-0.001-5.948-4.823-10.771-10.772-10.771H295.336z
		 M306.108,1420.189h43.087v73.635c-0.193,1.163-0.193,2.365,0,3.532v39.555c-0.193,1.164-0.193,2.363,0,3.533v73.633h-43.087
		v-32.314v-129.261V1420.189z M650.805,1420.189h43.086v32.314v129.261v32.316h-43.086v-73.719c0.186-1.143,0.186-2.307,0-3.451
		v-39.636c0.186-1.142,0.186-2.307,0-3.451V1420.189z M241.478,1463.277h43.087v107.716h-43.087v-30.631
		c0.185-1.143,0.185-2.307,0-3.451v-39.636c0.185-1.142,0.185-2.307,0-3.451V1463.277z M715.435,1463.277h43.087v107.716h-43.087
		V1463.277z M198.392,1506.362h21.543v21.545h-21.543V1506.362z M370.739,1506.362H500h129.261v21.545H500H370.739V1506.362z
		 M780.065,1506.362h21.544v10.773v10.771h-21.544V1506.362z"/>
</g>
</svg>
