<?xml version="1.0" encoding="utf-8"?>
<!-- Generator: Adobe Illustrator 16.0.0, SVG Export Plug-In . SVG Version: 6.00 Build 0)  -->
<!DOCTYPE svg PUBLIC "-//W3C//DTD SVG 1.1//EN" "http://www.w3.org/Graphics/SVG/1.1/DTD/svg11.dtd">
<svg version="1.1" id="Layer_1" xmlns="http://www.w3.org/2000/svg" xmlns:xlink="http://www.w3.org/1999/xlink" x="0px" y="0px"
	 width="1000px" height="1000px" viewBox="0 0 1000 1000" enable-background="new 0 0 1000 1000" xml:space="preserve">
<path fill="#AAAAAA" d="M500.267,1.49C225.966,1.49,2.455,224.977,2.034,499.687C1.842,635.3,55.335,766.78,148.832,860.421
	c88.811,88.931,206.789,137.92,332.227,137.92c6.692,0,13.431-0.133,20.206-0.421C780.082,986.495,998.5,767.658,998.5,499.723
	C998.5,224.989,775.002,1.49,500.267,1.49z M499.282,949.917c-6.103,0.252-12.192,0.372-18.235,0.372
	c-99.321,0-193.418-34.261-268.943-97.148c0.024-0.48,0.144-0.937,0.144-1.429c0-126.255,74.023-233.699,184.877-270.254
	c27.895,14.284,59.38,22.512,92.824,22.512c33.432,0,64.929-8.228,92.836-22.512c113.484,37.275,192.253,146.461,192.829,268.884
	C699.752,908.965,604.274,945.604,499.282,949.917z M489.948,555.918c-86.276,0-156.456-70.179-156.456-156.454
	c0-86.276,70.179-156.456,156.456-156.456s156.456,70.19,156.456,156.456C646.404,485.728,576.225,555.918,489.948,555.918z
	 M820.891,810.496c-14.308-114.988-87.407-215.15-191.137-262.181c39.727-37.324,64.701-90.169,64.701-148.852
	c0-112.765-91.742-204.507-204.507-204.507s-204.507,91.742-204.507,204.507c0,58.719,25.012,111.575,64.773,148.911
	c-100.8,46.272-169.813,144.479-183.328,261.195C92.25,726.333,49.929,614.746,50.109,499.747
	C50.482,251.501,252.43,49.529,500.291,49.529c248.209,0.013,450.159,201.96,450.159,450.194
	C950.449,620.164,901.363,729.613,820.891,810.496z"/>
</svg>
